<svg xmlns="http://www.w3.org/2000/svg" width="20" height="20" viewBox="0 0 20 20"><g fill="none"><path d="M3.5 10.125h1.625a.39.39 0 0 0 .417-.417v-1.5a.39.39 0 0 0-.417-.417H3.5a.39.39 0 0 0-.417.417v1.5c0 .25.208.417.417.417zm3.792 0h1.625a.39.39 0 0 0 .417-.417v-1.5a.39.39 0 0 0-.417-.417H7.292a.39.39 0 0 0-.417.417v1.5c0 .25.208.417.417.417zm3.792 0h1.625a.39.39 0 0 0 .417-.417v-1.5a.39.39 0 0 0-.417-.417h-1.625a.39.39 0 0 0-.417.417v1.5c0 .25.208.417.417.417zM3.5 13.458h1.625a.39.39 0 0 0 .417-.417v-1.5a.39.39 0 0 0-.417-.417H3.5a.39.39 0 0 0-.417.417v1.5a.45.45 0 0 0 .417.417zm3.792 0h1.625a.39.39 0 0 0 .417-.417v-1.5a.39.39 0 0 0-.417-.417H7.292a.39.39 0 0 0-.417.417v1.5a.45.45 0 0 0 .417.417zm3.792 0h1.625a.39.39 0 0 0 .417-.417v-1.5a.39.39 0 0 0-.417-.417h-1.625a.39.39 0 0 0-.417.417v1.5a.45.45 0 0 0 .417.417zM3.5 16.75h1.625a.39.39 0 0 0 .417-.417v-1.5a.39.39 0 0 0-.417-.417H3.5a.39.39 0 0 0-.417.417v1.5c0 .25.208.417.417.417zm3.792 0h1.625a.39.39 0 0 0 .417-.417v-1.5a.39.39 0 0 0-.417-.417H7.292a.39.39 0 0 0-.417.417v1.5c0 .25.208.417.417.417zm3.792 0h1.625a.39.39 0 0 0 .417-.417v-1.5a.39.39 0 0 0-.417-.417h-1.625a.39.39 0 0 0-.417.417v1.5c0 .25.208.417.417.417zm3.792-6.625H16.5a.39.39 0 0 0 .417-.417v-1.5a.39.39 0 0 0-.417-.417h-1.625a.39.39 0 0 0-.417.417v1.5c0 .25.208.417.417.417zm0 3.333H16.5a.39.39 0 0 0 .417-.417v-1.5a.39.39 0 0 0-.417-.417h-1.625a.39.39 0 0 0-.417.417v1.5a.45.45 0 0 0 .417.417z" fill="#333"/><path d="M18.75 2.208h-1.083v-.875c0-.75-.583-1.333-1.333-1.333C15.625 0 15 .583 15 1.333v.875h-3.667v-.875C11.333.583 10.75 0 10 0S8.667.583 8.667 1.333v.875H5v-.875C5 .583 4.375 0 3.667 0S2.333.583 2.333 1.333v.875H1.25C.542 2.208 0 2.75 0 3.458V18.75C0 19.417.542 20 1.25 20h17.5c.708 0 1.25-.583 1.25-1.25V3.458c0-.708-.542-1.25-1.25-1.25zm-2.917-.875c0-.292.25-.5.5-.5a.48.48 0 0 1 .5.5v2.083a.48.48 0 0 1-.5.5.48.48 0 0 1-.5-.5V1.333zm-6.333 0a.48.48 0 0 1 .5-.5.48.48 0 0 1 .5.5v2.083a.48.48 0 0 1-.5.5.48.48 0 0 1-.5-.5V1.333zm-6.333 0a.48.48 0 0 1 .5-.5.48.48 0 0 1 .5.5v2.083a.48.48 0 0 1-.5.5c-.292 0-.5-.25-.5-.5V1.333zm15.167 17H1.667V6.167h16.667v12.167z" fill="#DC3A3A"/></g></svg>
