<svg xmlns="http://www.w3.org/2000/svg" xmlns:xlink="http://www.w3.org/1999/xlink" width="21" height="20" viewbox="0 0 21 20"><defs><path id="A" d="M0 0h16.55v20H0z"/><path id="B" d="M0 20h20.37V0H0z"/></defs><g fill="none" fill-rule="evenodd"><mask id="C" fill="#fff"><use xlink:href="#A"/></mask><path d="M5.49 1.25h6.85l-1.27 2.5h-4.3l-1.27-2.5zM2.52 15.83c.02-.06.03-.13.03-.2v-7.5c0-1.04.85-1.87 1.91-1.87h1.27c.24 0 .46-.13.57-.34L6.76 5h4.3l.46.91c.11.21.33.34.57.34h1.27c1.05 0 1.91.84 1.91 1.88v1.25h1.27V8.13C16.55 6.4 15.12 5 13.37 5h-.88l-.32-.62L13.94.91c.16-.31.03-.68-.28-.84-.09-.04-.19-.07-.29-.07H4.46c-.35 0-.64.28-.63.63 0 .1.02.19.07.28l1.76 3.47-.32.63h-.88C2.7 5 1.27 6.4 1.27 8.13v7.4L.03 19.18c-.11.33.07.68.4.79.07.02.14.03.21.03H7v-1.25H1.52l.99-2.93z" mask="url(#C)" fill="#333"/><mask id="D" fill="#fff"><use xlink:href="#B"/></mask><path d="M9.4 7.46c-.33 0-.6.09-.81.28s-.35.46-.41.81H9.8v.7H8.11l-.01.14v.19l.01.13h1.43v.71H8.18c.14.64.57.96 1.3.96.39 0 .76-.08 1.11-.23v1.02c-.31.16-.71.23-1.18.23-.66 0-1.2-.18-1.63-.53s-.69-.84-.8-1.46h-.55v-.71h.48c-.01-.06-.02-.14-.02-.25l.01-.21h-.47v-.7h.54a2.4 2.4 0 0 1 .8-1.52c.44-.37.98-.56 1.64-.56.51 0 .98.11 1.42.33l-.4.92a4.1 4.1 0 0 0-.52-.19c-.16-.05-.33-.07-.5-.07z" mask="url(#D)" fill="#333"/><path d="M15.27 13.75h3.82V12.5h-3.82v1.25zm0 2.5h3.82V15h-3.82v1.25zm0 2.5h3.82V17.5h-3.82v1.25zm-5.09-2.5H14V15h-3.82v1.25zm0 2.5H14V17.5h-3.82v1.25zm9.55-7.5h-5.09c-.35 0-.64.28-.64.63v1.88H9.55c-.35 0-.64.28-.64.63v5c0 .35.29.63.64.63h10.18c.35 0 .64-.28.64-.62v-7.5c0-.35-.28-.62-.64-.62z" mask="url(#D)" fill="#CBA100"/></g></svg>
