<svg xmlns="http://www.w3.org/2000/svg" width="22" height="22" viewBox="0 0 22 22"><path d="M20.269 10.216c.832-.526 1.338-1.427 1.233-2.389-.153-1.4-1.54-2.396-3.099-2.226-3.278.358-4.231 3.664-7.18 5.17 1.237-3.239 4.936-4.552 4.936-7.927 0-1.571-1.271-2.845-2.84-2.845a2.84 2.84 0 0 0-2.496 1.487A2.84 2.84 0 0 0 8.326 0c-1.568 0-2.84 1.274-2.84 2.845 0 3.352 3.65 4.651 4.911 7.852-2.629-1.536-3.638-4.384-6.76-4.77C2.08 5.735.688 6.635.527 7.939c-.11.896.389 1.748 1.217 2.257-.927.291-1.619.997-1.729 1.892-.161 1.304.971 2.517 2.527 2.709 2.918.361 4.553-1.813 7.145-2.792l-2.393 1.976c-2.089 1.718-4.309 3.962-4.69 6.774l-.074.55c.513.328 1.151.388 1.716.162l.091-.037c.003-.918.137-1.764.454-2.63.502-1.367 1.477-2.643 2.45-3.713a33 33 0 0 1 2.687-2.628c-1.065 2.528-3.282 4.268-2.844 7.101.24 1.553 1.591 2.632 3.018 2.411.98-.152 1.741-.879 2.043-1.822.573.807 1.518 1.269 2.498 1.117 1.427-.221 2.389-1.66 2.149-3.212-.468-3.028-3.448-3.929-5.208-6.342 3.012.932 4.672 3.761 7.851 3.414 1.559-.17 2.7-1.443 2.547-2.843-.104-.962-.792-1.733-1.718-2.066z" fill="#90DF1E"/></svg>
