<svg xmlns="http://www.w3.org/2000/svg" width="22" height="21"><g fill="none" fill-rule="nonzero"><path fill="#FFD136" d="M15.231 11.985L15.231 19.385 1.128 19.937 1.692 1.615 15.795 1.063 15.231 4.764 16.923 3.149 16.923 0 0 0 0 21 16.923 21 16.923 10.37z"/><path fill="#000" stroke="#000" d="M3.13213648 17.9333214C3.14470383 17.9724141 3.18868958 18.0831767 3.23267532 17.9984759 3.62854702 17.2491995 4.08097181 16.5325003 4.58366603 15.8548938 5.33770735 16.3891605 6.07918132 16.936458 6.58815922 17.7508889 6.63842864 17.8290742 6.67613071 17.7117962 6.68869806 17.6727035 6.70754909 17.5814872 6.70126542 17.4642092 6.65727967 17.3795084 6.23627327 16.5650775 5.54506872 16.0373263 4.80987843 15.5551832 5.24973587 14.9883394 5.72101169 14.4475573 6.22998959 13.9458678 6.29911004 13.8807134 6.29282637 13.7373735 6.28025901 13.6461573 6.27397533 13.6200955 6.23627327 13.4181166 6.17343649 13.4832711 5.58905446 14.0761768 5.04865818 14.7146906 4.55224764 15.3922971 4.07468814 15.0860711 3.58456127 14.7993914 3.15098751 14.4540727 3.10071809 14.41498 3.08186706 14.6755979 3.13213648 14.7277215 3.50915714 15.0795556 3.92387987 15.3857816 4.34488628 15.6854922 3.90502884 16.3174905 3.50915714 16.9755507 3.15098751 17.6661881 3.11328545 17.737858 3.10700177 17.855136 3.13213648 17.9333214zM3.13213648 11.3017424C3.14470383 11.3408351 3.18868958 11.4515977 3.23267532 11.3668969 3.62854702 10.6176205 4.08097181 9.90092134 4.58366603 9.22331485 5.33770735 9.7575815 6.07918132 10.3048791 6.58815922 11.1193099 6.63842864 11.1974953 6.67613071 11.0802172 6.68869806 11.0411246 6.70754909 10.9499083 6.70126542 10.8326303 6.65727967 10.7479294 6.23627327 9.93349857 5.54506872 9.40574737 4.80987843 8.92360429 5.24973587 8.35676041 5.72101169 7.81597831 6.22998959 7.31428889 6.29911004 7.24913442 6.29282637 7.10579459 6.28025901 7.01457833 6.27397533 6.98851654 6.23627327 6.78653769 6.17343649 6.85169216 5.58905446 7.44459783 5.04865818 8.08311163 4.55224764 8.76071812 4.07468814 8.45449211 3.58456127 8.16781244 3.15098751 7.82249376 3.10071809 7.78340107 3.08186706 8.04401895 3.13213648 8.09614253 3.50915714 8.44797666 3.92387987 8.75420267 4.34488628 9.05391323 3.90502884 9.68591159 3.50915714 10.3439717 3.15098751 11.0346091 3.11328545 11.106279 3.10700177 11.2235571 3.13213648 11.3017424zM9.33726468 6.8806898C9.34983204 6.91978249 9.39381778 7.03054508 9.43780353 6.94584427 9.83367522 6.19656787 10.2861 5.47986871 10.7887942 4.80226222 11.5428356 5.33652887 12.2843095 5.88382642 12.7932874 6.69825729 12.8435568 6.77644265 12.8812589 6.65916461 12.8938263 6.62007193 12.9126773 6.52885567 12.9063936 6.41157762 12.8624079 6.32687681 12.4414015 5.51244594 11.7501969 4.98469474 11.0150066 4.50255166 11.4548641 3.93570778 11.9261399 3.39492568 12.4351178 2.89323626 12.5042382 2.82808179 12.4979546 2.68474196 12.4853872 2.5935257 12.4791035 2.56746391 12.4414015 2.36548506 12.3785647 2.43063953 11.7941827 3.0235452 11.2537864 3.662059 10.7573758 4.33966549 10.2798163 4.03343948 9.78968948 3.74675981 9.35611572 3.40144112 9.3058463 3.36234844 9.28699526 3.62296632 9.33726468 3.6750899 9.71428535 4.02692403 10.1290081 4.33315004 10.5500145 4.6328606 10.110157 5.26485896 9.71428535 5.9229191 9.35611572 6.61355648 9.31841365 6.6852264 9.31212997 6.80250444 9.33726468 6.8806898z"/><path fill="#B7B7B7" d="M12.692 13.356L9.59 14.368 10.624 11.329 19.932 2.211 22 4.237z"/></g></svg>